<?xml version="1.0" standalone="no"?>
<!DOCTYPE svg PUBLIC "-//W3C//DTD SVG 20010904//EN"
 "http://www.w3.org/TR/2001/REC-SVG-20010904/DTD/svg10.dtd">
<svg version="1.0" xmlns="http://www.w3.org/2000/svg"
 width="300.000000pt" height="303.000000pt" viewBox="0 0 300.000000 303.000000"
 preserveAspectRatio="xMidYMid meet">
<metadata>
Created by potrace 1.10, written by Peter Selinger 2001-2011
</metadata>
<g transform="translate(0.000000,303.000000) scale(0.050000,-0.050000)"
fill="#ff0000" stroke="none">
<path d="M2893 5767 c-7 -8 -78 -17 -158 -21 -80 -4 -153 -16 -164 -27 -10
-10 -44 -19 -75 -19 -31 0 -56 -8 -56 -17 0 -10 24 -13 53 -7 43 8 51 4 41
-22 -7 -18 -1 -44 13 -59 35 -34 60 -135 34 -135 -11 0 -15 -13 -8 -30 6 -16
1 -30 -11 -30 -12 0 -23 20 -24 45 -2 34 -7 28 -24 -25 -57 -179 -260 -269
-317 -140 -29 64 -85 80 -105 29 -38 -101 202 -259 258 -169 7 11 28 20 48 20
39 0 122 79 122 117 0 13 23 59 51 102 46 68 50 86 31 152 -26 95 -21 102 83
120 47 8 74 19 60 24 -45 15 -26 45 25 40 28 -2 50 -13 50 -24 0 -12 8 -9 18
6 11 18 21 20 30 6 12 -19 92 39 92 67 0 15 -51 12 -67 -3z"/>
<path d="M3117 5767 c-35 -10 -66 -65 -47 -83 5 -6 10 0 10 14 0 13 9 19 20
12 11 -7 20 -3 20 9 0 11 32 21 70 21 39 0 70 -9 70 -21 0 -12 12 -10 28 5 39
37 -81 66 -171 43z"/>
<path d="M3609 5702 c7 -12 30 -22 51 -22 21 0 43 -8 49 -18 16 -26 133 -39
125 -14 -4 12 -16 23 -26 24 -17 1 -95 20 -176 42 -24 7 -32 2 -23 -12z"/>
<path d="M3000 5613 c0 -19 -16 -24 -50 -18 -29 6 -50 0 -50 -13 0 -20 63 -33
110 -22 11 3 55 6 99 8 44 2 82 15 87 29 5 17 -5 24 -29 20 -20 -3 -48 1 -62
10 -14 9 -25 6 -25 -7 0 -15 -11 -15 -40 0 -31 17 -40 15 -40 -7z"/>
<path d="M3877 5613 c13 -15 17 -32 11 -39 -19 -18 113 -92 192 -107 38 -7 96
-30 130 -50 33 -20 75 -37 94 -37 18 0 46 -17 61 -39 15 -21 51 -44 81 -52 30
-7 54 -27 54 -44 0 -28 -4 -28 -35 -1 -19 16 -64 41 -100 55 -36 14 -65 34
-65 43 0 10 -16 18 -36 18 -19 0 -71 18 -114 40 -43 22 -95 40 -114 40 -20 0
-36 9 -36 19 0 11 -14 15 -30 8 -17 -6 -42 -2 -55 9 -14 11 -74 26 -135 34
-60 8 -121 24 -135 35 -17 14 -35 11 -58 -8 -18 -15 -36 -25 -40 -22 -31 23
-87 -1 -87 -36 0 -49 -233 -278 -283 -279 -18 0 -38 -14 -45 -31 -6 -17 -20
-27 -30 -20 -9 6 -22 -8 -28 -30 -6 -23 -23 -40 -37 -38 -15 2 -41 3 -58 1
-35 -2 -238 -184 -240 -214 0 -10 -9 -58 -18 -108 -14 -71 -10 -107 18 -172
36 -81 34 -199 -1 -176 -27 16 -100 -12 -87 -33 6 -11 -3 -19 -21 -19 -25 0
-27 -8 -11 -39 45 -83 -18 -190 -155 -260 -55 -28 -256 6 -260 45 -2 13 -21
92 -44 174 -78 284 -71 315 80 388 162 78 211 83 267 26 27 -26 63 -54 81 -60
18 -7 32 -33 33 -58 0 -25 13 -68 28 -96 41 -73 64 -3 34 99 -63 211 -214 277
-463 202 -96 -29 -116 -27 -129 15 -17 54 -128 90 -165 53 -16 -16 -59 -29
-96 -29 -64 0 -230 -122 -230 -169 0 -10 -23 -47 -50 -83 -27 -36 -51 -77 -51
-92 -1 -14 -12 -3 -24 24 -38 82 -136 200 -168 200 -32 0 -88 47 -86 74 0 9
32 36 71 61 66 42 70 43 58 6 -11 -34 35 -81 79 -81 20 0 11 37 -16 64 -32 32
-35 96 -7 131 30 39 6 49 -51 24 -37 -17 -61 -17 -93 0 -45 24 -147 -41 -114
-74 8 -8 27 2 42 22 34 46 77 26 51 -23 -10 -19 -22 -47 -27 -64 -5 -16 -39
-47 -74 -68 l-65 -37 8 72 9 73 -76 -79 c-42 -44 -76 -89 -76 -100 0 -11 -18
-32 -40 -46 -22 -13 -40 -40 -40 -60 0 -19 -11 -35 -25 -35 -23 0 -115 -122
-115 -152 0 -8 -20 -34 -45 -59 -70 -71 -81 -88 -158 -269 -100 -233 -168
-443 -198 -610 -57 -313 -20 -1034 64 -1270 21 -60 51 -151 65 -201 15 -50 73
-176 129 -280 57 -104 114 -211 128 -239 13 -27 45 -72 70 -100 25 -27 71 -86
100 -129 64 -92 140 -169 275 -281 53 -44 113 -96 133 -115 53 -51 68 -44 96
43 15 44 47 89 74 103 30 17 47 44 47 75 0 47 -2 48 -37 17 -50 -45 -56 -43
-73 32 -63 261 98 480 353 484 72 2 51 25 -43 49 -111 28 -127 63 -53 112 70
46 186 55 240 20 26 -17 52 -24 59 -17 7 7 25 4 39 -8 59 -47 279 -28 405 35
77 38 151 60 205 60 59 0 85 8 85 28 0 41 -53 54 -158 40 l-92 -12 -21 91
c-33 142 58 211 241 182 64 -10 73 -7 66 24 -6 33 -29 37 -186 37 l-180 0 -6
66 c-4 39 7 88 27 118 37 57 7 99 -51 71 -16 -8 -147 -15 -290 -16 -294 -1
-399 -24 -488 -107 -113 -106 -69 -142 48 -39 136 119 340 98 291 -30 -11 -29
-14 -67 -8 -85 14 -36 -23 -67 -83 -68 -66 -1 -259 -107 -267 -147 -6 -32 7
-29 100 21 124 67 207 66 223 0 6 -24 17 -63 24 -86 13 -42 -85 -84 -163 -71
-13 2 -57 -19 -98 -46 -92 -63 -189 -69 -189 -12 0 21 8 44 18 50 31 19 38
108 9 119 -15 6 -27 22 -27 36 0 14 -28 97 -62 184 -73 189 -69 218 60 354
107 113 331 166 414 96 31 -26 333 -32 410 -7 17 5 48 -8 67 -30 44 -48 71
-36 71 31 0 58 49 81 228 107 137 19 238 -42 243 -147 1 -27 14 -64 29 -82 40
-48 29 -254 -23 -430 -98 -336 -55 -488 219 -769 175 -180 186 -196 180 -266
-9 -117 -88 -116 -184 2 -218 265 -521 -1 -354 -312 86 -158 78 -233 -28 -290
-31 -16 -50 -14 -79 7 -21 15 -64 28 -94 28 -70 0 -91 38 -106 191 l-12 119
88 64 c303 219 331 757 40 786 -121 12 -510 0 -537 -17 -11 -7 -42 -13 -68
-13 -56 0 -81 -42 -28 -46 99 -7 228 -5 243 4 64 40 146 32 132 -12 -27 -91
-66 -127 -226 -206 -161 -79 -191 -114 -108 -126 111 -17 366 164 434 307 36
76 109 94 162 40 108 -107 -144 -385 -438 -485 -195 -66 -213 -78 -138 -95
109 -24 465 116 465 182 0 38 39 33 115 -13 175 -106 -143 -320 -476 -320 -35
0 -65 -13 -72 -30 -13 -33 -67 -41 -67 -10 0 11 -18 20 -40 20 -51 0 -51 -32
0 -60 48 -26 51 -55 9 -101 -28 -31 -20 -39 100 -101 72 -38 131 -75 131 -83
0 -22 -96 -18 -110 5 -7 11 -46 20 -86 20 l-74 0 80 -49 c44 -28 96 -50 115
-50 19 -1 35 -8 35 -16 0 -15 181 -78 350 -122 179 -47 246 -55 570 -65 104
-4 401 15 470 29 33 7 92 18 130 24 39 6 93 18 120 27 28 10 104 34 170 54 66
20 130 43 142 52 11 8 82 38 156 66 75 28 211 100 304 161 92 60 173 109 179
109 6 0 32 22 57 50 26 27 55 50 66 50 11 0 51 34 91 75 39 41 83 85 98 97 15
11 59 56 99 100 39 43 88 87 107 98 20 12 55 54 78 94 24 40 97 161 163 269
543 896 517 2077 -66 2950 -54 81 -108 165 -120 188 -11 22 -44 53 -72 68 -29
15 -52 38 -52 52 0 21 -215 235 -402 399 -60 53 -164 117 -318 194 -27 13 -81
44 -120 67 -125 76 -445 173 -403 122z m-172 -170 c11 -51 -57 -167 -138 -233
-40 -33 -89 -76 -110 -95 -20 -19 -45 -35 -55 -35 -10 0 -23 -13 -29 -30 -6
-16 -25 -24 -41 -18 -55 21 -253 -133 -292 -227 -12 -28 -30 -40 -49 -32 -25
9 -31 -5 -31 -70 0 -91 36 -131 55 -60 12 45 13 45 28 -12 11 -40 8 -64 -8
-74 -17 -11 -12 -35 18 -91 50 -90 96 -275 77 -306 -7 -12 -1 -36 13 -54 57
-69 34 -362 -39 -489 -71 -123 -78 -157 -36 -157 146 0 256 519 161 757 -48
118 -32 248 31 265 132 37 328 19 366 -33 l36 -49 -97 0 c-126 0 -272 -196
-186 -249 11 -7 21 -29 21 -48 0 -75 114 -129 248 -118 67 6 133 6 147 1 27
-10 35 -86 9 -86 -26 0 -260 -157 -278 -186 -9 -15 -30 -32 -46 -38 -36 -13
-164 -253 -149 -278 6 -10 2 -51 -9 -92 -16 -56 -15 -82 5 -105 85 -103 120
-213 96 -307 -71 -283 155 -431 367 -240 53 48 242 146 280 146 82 0 30 -138
-70 -185 -84 -40 -200 -133 -167 -134 13 -1 69 22 123 49 122 61 135 62 154 5
13 -41 16 -38 27 24 11 61 22 71 90 85 42 9 96 30 119 46 24 17 63 30 87 30
24 0 56 12 71 27 30 30 76 35 170 21 71 -10 102 -204 34 -211 -116 -10 -144
-73 -29 -65 53 3 61 -3 61 -45 0 -28 -9 -44 -20 -37 -11 7 -20 -1 -20 -17 0
-16 -14 -34 -31 -41 -17 -6 -28 -23 -25 -37 14 -60 -82 -150 -173 -164 -147
-22 -142 -65 8 -79 69 -7 87 -1 113 38 37 57 118 90 203 83 35 -3 68 4 72 16
5 14 17 12 35 -4 16 -15 83 -25 175 -25 143 0 287 -28 337 -65 36 -28 -11
-275 -54 -275 -8 0 -47 -22 -87 -49 -66 -45 -78 -47 -156 -25 -91 27 -97 40
-97 218 1 89 -36 158 -43 82 -2 -20 -6 -49 -8 -66 -3 -16 -6 -67 -7 -113 -2
-67 -10 -84 -46 -94 -62 -16 -40 -30 86 -53 208 -39 255 -80 190 -165 -29 -38
-141 -48 -162 -15 -7 12 -123 20 -280 20 -279 0 -349 21 -321 94 6 16 11 36
11 44 0 35 144 64 259 50 85 -9 121 -6 121 9 0 15 -47 23 -131 23 -195 0 -249
48 -187 163 16 30 16 47 0 63 -16 16 -22 10 -22 -22 0 -24 -9 -44 -21 -44 -11
0 -19 -11 -17 -25 5 -30 -30 -112 -66 -156 -29 -36 -210 -92 -230 -71 -7 7
-25 -14 -39 -48 -14 -33 -37 -60 -51 -60 -31 0 -144 -103 -189 -172 -17 -26
-43 -48 -57 -48 -14 0 -32 -25 -39 -55 -8 -30 -37 -100 -64 -154 -45 -90 -47
-108 -27 -182 45 -160 13 -182 -39 -26 -27 81 -70 178 -95 217 -58 88 -58 128
2 175 122 96 169 292 106 442 -39 93 -254 251 -254 187 0 -9 40 -45 89 -79
159 -112 192 -271 88 -416 -89 -124 -119 -128 -254 -34 -242 169 -268 536 -53
745 39 37 70 81 70 98 0 18 -35 -4 -90 -58 -49 -49 -90 -100 -90 -115 0 -15
-15 -56 -34 -91 -36 -69 -89 -394 -64 -394 8 0 22 -20 29 -44 8 -24 90 -117
182 -207 92 -89 167 -179 167 -199 0 -20 21 -73 47 -118 102 -177 108 -488 12
-548 -236 -147 -415 92 -220 293 117 120 137 296 42 360 -23 16 -41 40 -41 54
0 14 -49 68 -110 120 -60 52 -110 105 -110 118 0 13 -26 42 -57 66 -115 84
-167 267 -125 435 11 44 31 127 44 185 13 58 31 105 41 105 29 0 185 142 283
257 67 78 96 341 55 503 -12 50 -26 114 -30 143 -5 30 -17 70 -28 90 -11 21
-28 69 -39 107 -19 67 -20 67 -22 14 -2 -70 39 -337 57 -364 59 -91 11 -441
-73 -523 -100 -99 -229 -136 -199 -57 7 17 4 52 -7 79 -14 38 -5 74 44 172
l61 123 -25 176 c-14 97 -19 200 -12 228 9 38 2 61 -27 86 -27 23 -36 48 -28
80 6 26 2 46 -9 46 -42 0 -84 -25 -84 -50 0 -15 -11 -31 -25 -37 -14 -5 -2
-11 27 -11 52 -2 82 -84 106 -282 3 -27 8 -54 10 -60 43 -98 -21 -274 -97
-265 -45 5 -179 95 -207 140 -22 34 -84 32 -114 -5 -14 -16 -41 -30 -61 -30
-20 0 -41 -8 -47 -17 -11 -17 -51 -29 -217 -62 l-75 -16 0 93 c0 50 -6 112
-13 137 -9 36 -3 45 29 45 23 0 47 8 53 19 7 10 27 18 46 17 19 -1 76 5 125
13 50 8 102 15 118 16 15 1 32 18 37 38 5 20 27 37 48 37 77 0 167 135 170
258 3 72 13 114 30 120 163 54 235 510 124 776 -17 42 -34 96 -37 121 -2 25
-19 62 -37 82 -45 50 -73 212 -50 294 31 114 253 309 351 309 13 0 32 14 42
31 9 17 30 34 45 36 35 6 248 215 279 273 12 23 30 36 40 30 9 -6 22 -2 29 8
17 28 88 2 96 -35z m310 -69 c72 -39 70 -51 -18 -178 -44 -63 -34 -281 17
-383 28 -55 -5 -138 -51 -129 -7 1 -39 -5 -71 -14 -66 -18 -152 56 -152 130 0
42 -51 56 -230 65 -122 6 -143 56 -55 136 30 29 136 133 235 233 191 192 211
201 325 140z m264 -135 c106 -2 176 -199 71 -199 -30 0 -50 -11 -50 -28 0 -16
-32 -65 -72 -109 -73 -82 -128 -91 -128 -22 0 20 -8 42 -18 48 -25 15 -40 110
-19 123 9 6 17 26 17 45 0 51 124 187 148 163 11 -11 34 -20 51 -21z m508
-181 c51 -23 190 -198 158 -198 -10 0 -53 38 -97 85 -43 47 -96 96 -118 109
-51 30 -7 33 57 4z m-173 -100 c47 -23 86 -46 86 -52 0 -19 -90 -94 -162 -135
-37 -21 -121 -78 -185 -125 -142 -104 -204 -111 -223 -27 -13 62 34 161 78
161 13 0 77 49 143 109 135 124 144 127 263 69z m-1308 -77 c9 0 10 -11 3 -23
-31 -50 67 -99 191 -96 137 5 140 3 146 -74 4 -61 -19 -71 -256 -100 -55 -7
-109 -20 -120 -29 -27 -21 -124 -1 -152 33 -30 37 -5 208 31 208 15 0 32 22
39 50 10 38 23 48 57 41 25 -4 52 -9 61 -10z m1595 -99 c53 -11 77 -121 32
-146 -76 -41 -333 -196 -446 -269 -146 -94 -240 -93 -258 1 -16 84 29 161 112
189 32 12 124 63 204 115 179 116 240 135 356 110z m-3836 -37 c4 -19 0 -56
-9 -83 -17 -46 -15 -47 74 -37 50 6 95 3 100 -5 5 -9 33 -22 62 -29 95 -24
161 -134 96 -159 -22 -8 -29 -29 -23 -62 7 -39 -6 -58 -67 -99 -93 -61 -118
-64 -118 -11 0 22 -13 40 -30 40 -21 0 -30 22 -30 77 0 62 -9 81 -50 99 -27
13 -50 37 -50 54 0 42 -35 37 -59 -9 -25 -45 -28 -83 -4 -45 9 14 31 20 50 13
37 -15 43 -40 14 -58 -40 -25 70 -220 130 -231 66 -12 92 -60 32 -60 -22 0
-59 -24 -82 -53 -41 -53 -42 -53 -80 -15 -21 21 -70 67 -109 103 l-72 66 51
81 c29 45 47 96 40 113 -27 70 -110 -63 -282 -451 -26 -58 -69 -152 -96 -210
-27 -57 -54 -144 -59 -194 -11 -104 -54 -222 -68 -185 -29 78 123 604 197 684
22 23 34 50 27 61 -7 11 8 49 33 85 26 35 44 80 40 100 -3 20 7 35 24 35 16 0
38 27 50 60 12 33 30 60 42 60 12 0 21 14 21 30 0 39 42 115 75 136 14 9 39
43 56 75 34 67 62 76 74 24z m910 -40 c36 -29 46 -62 57 -185 7 -82 24 -186
38 -230 64 -199 60 -284 -13 -329 -79 -48 -143 -52 -184 -11 -17 17 -45 30
-63 30 -63 0 -103 38 -129 124 -15 47 -38 122 -51 166 -61 198 2 343 189 434
89 43 101 43 156 1z m3200 -88 c19 -24 53 -64 75 -87 71 -77 109 -159 89 -191
-15 -24 -21 -21 -31 16 -7 24 -20 40 -28 35 -9 -6 -36 30 -60 80 -24 49 -50
90 -59 90 -8 0 -25 23 -37 50 -29 63 3 67 51 7z m-1119 -55 c-5 -42 -21 -56
-81 -71 -96 -23 -127 1 -93 75 40 89 184 86 174 -4z m1027 -35 c40 -36 49 -87
16 -87 -130 0 -399 -266 -399 -393 0 -74 -33 -71 -95 6 l-59 74 -91 -26 c-178
-49 -141 104 41 171 52 19 108 45 124 58 40 32 161 90 187 90 12 0 40 21 62
47 82 93 155 114 214 60z m-983 -132 c11 -25 30 -60 43 -77 51 -72 -107 -193
-176 -136 -75 63 -80 198 -7 198 20 0 41 14 47 30 17 45 71 36 93 -15z m-2580
-35 c22 -22 31 -40 20 -40 -22 0 -26 -131 -7 -240 12 -74 194 -217 305 -240
74 -15 77 -60 5 -60 -139 0 -252 -88 -275 -215 -7 -41 -20 -88 -28 -105 -41
-84 -41 -140 -1 -140 22 0 50 -19 63 -43 33 -62 119 -133 191 -157 35 -12 68
-34 74 -48 6 -17 29 -23 61 -17 30 6 52 1 52 -12 0 -12 12 -17 27 -11 65 25
126 -157 90 -269 -21 -65 -24 -66 -104 -54 -46 7 -159 20 -253 27 l-170 14
-12 202 c-17 268 -52 325 -260 420 -63 29 -90 108 -48 140 17 12 30 28 30 35
0 16 123 219 141 233 106 82 24 280 -116 280 -78 0 -74 70 5 100 24 9 59 49
78 88 19 40 42 72 53 72 10 0 19 18 19 40 0 22 5 40 10 40 6 0 28 -18 50 -40z
m3687 -6 c51 -36 23 -84 -63 -111 -217 -68 -266 -280 -104 -453 86 -93 320
-39 320 73 0 47 -9 46 -76 -3 -68 -50 -183 -25 -233 51 -41 63 40 237 120 258
52 13 208 -58 210 -96 6 -87 22 -140 58 -191 60 -84 55 -196 -9 -226 -67 -30
-63 -68 9 -83 59 -12 105 -64 130 -148 11 -36 7 -42 -19 -32 -27 10 -32 1 -27
-45 4 -32 15 -55 25 -52 55 20 93 -280 44 -347 -22 -30 -73 -39 -294 -53 -148
-10 -284 -26 -303 -37 -19 -10 -48 -19 -65 -19 -39 0 -38 -28 2 -61 25 -21 39
-22 71 -2 95 60 504 54 566 -8 113 -114 12 -203 -223 -196 -198 6 -246 -3
-246 -44 0 -22 30 -30 115 -31 213 -4 248 -12 297 -65 64 -68 61 -93 -21 -172
-72 -70 -107 -73 -321 -30 -33 6 -109 14 -170 17 -149 8 -199 27 -221 84 -38
101 35 177 166 168 30 -1 55 6 55 17 0 32 -79 79 -116 71 -91 -22 -129 97 -56
175 l49 52 -78 38 c-173 82 -92 187 145 189 402 1 681 149 526 278 -16 14 -30
36 -30 49 0 22 -84 67 -185 99 -19 6 -35 20 -35 31 0 12 16 21 35 22 37 0 105
44 105 67 0 7 -29 12 -65 11 -269 -7 -360 28 -444 172 -92 156 -37 490 89 538
191 74 221 79 267 45z m-1428 -42 c13 -16 25 -67 27 -114 l4 -86 -109 -25
c-69 -15 -118 -18 -132 -6 -13 10 -28 13 -35 6 -23 -23 -74 37 -74 86 0 106
254 217 319 139z m-944 -88 c0 -28 -10 -63 -22 -77 -13 -14 -54 -71 -93 -126
-76 -109 -157 -159 -250 -157 -33 1 -117 -13 -187 -31 -172 -45 -217 -43 -234
11 -10 30 -5 47 13 53 16 5 55 37 88 71 57 60 64 61 130 38 177 -61 460 80
460 230 0 49 15 62 59 50 23 -6 36 -28 36 -62z m2619 -64 c23 -62 11 -77 -30
-36 -27 27 -33 96 -8 96 8 0 25 -27 38 -60z m-1237 -80 c13 0 30 -14 36 -32
12 -30 89 -28 173 3 61 23 154 -67 125 -121 -47 -92 -151 -154 -234 -141 -48
7 -76 3 -81 -12 -5 -13 -26 -26 -47 -29 -22 -3 -120 -29 -219 -57 -99 -28
-200 -51 -224 -51 -187 0 -130 -326 62 -353 34 -5 74 -13 88 -18 15 -5 56 14
92 41 36 28 90 50 119 50 29 0 53 7 53 16 0 20 146 86 206 93 24 2 63 11 86
18 128 42 70 -116 -74 -202 -33 -19 -64 -57 -70 -85 -6 -27 -19 -68 -28 -90
-9 -22 -21 -55 -27 -74 -6 -19 -35 -41 -64 -48 -29 -7 -76 -35 -104 -61 -28
-26 -63 -47 -77 -47 -15 0 -36 -18 -48 -40 -12 -22 -34 -40 -50 -40 -15 0 -39
-17 -54 -37 -14 -21 -48 -44 -76 -52 -27 -9 -63 -27 -80 -42 -98 -84 -250 -7
-234 119 24 172 461 460 562 370 23 -21 97 18 82 42 -12 20 -216 11 -250 -10
-40 -25 -291 -110 -324 -110 -40 0 -154 158 -153 212 0 21 -5 56 -12 78 -9 28
5 59 47 105 33 36 76 92 95 125 20 33 51 60 70 60 19 0 40 9 47 20 7 11 28 20
48 20 19 0 53 21 76 48 23 26 49 51 59 55 26 11 107 132 107 161 2 87 184 196
242 144 17 -15 42 -28 55 -28z m-3292 21 c8 0 15 -16 15 -34 0 -18 22 -51 48
-75 56 -48 77 -188 36 -237 -67 -81 -284 -26 -284 72 0 11 -13 35 -30 53 -53
58 57 242 138 231 34 -5 69 -9 77 -10z m2006 -48 c33 -130 9 -288 -58 -378
l-41 -56 -29 55 c-16 31 -46 68 -66 82 -50 36 -48 49 33 164 39 55 70 112 70
126 0 68 74 73 91 7z m-1598 -138 c33 -47 19 -124 -26 -144 -183 -80 -168
-391 25 -503 21 -12 46 -50 56 -85 10 -35 25 -63 35 -63 38 0 75 -144 69 -272
l-6 -131 -123 -114 c-153 -142 -160 -198 -51 -424 121 -251 73 -558 -88 -559
-15 0 -57 -23 -94 -51 -239 -182 -299 85 -85 373 137 183 147 226 96 405 -22
77 -39 101 -84 117 -76 26 -72 45 17 89 153 75 198 265 95 400 -50 65 -61 101
-70 233 -18 242 -135 353 -289 274 -156 -79 -224 -42 -207 113 9 75 70 84 186
27 140 -67 348 66 325 208 -17 106 159 192 219 107z m3447 -166 c0 -32 139
-149 177 -149 18 0 59 -17 90 -38 70 -46 51 -62 -113 -96 -63 -13 -142 -37
-175 -53 -51 -26 -59 -26 -59 -1 0 170 -386 222 -520 69 -92 -105 -364 -154
-432 -79 -85 94 49 209 278 238 68 9 138 21 154 27 17 6 84 15 150 20 137 11
216 46 299 132 l57 60 47 -55 c26 -30 47 -64 47 -75z m-2146 -5 c24 -28 39
-59 34 -67 -5 -8 5 -48 21 -89 52 -123 29 -269 -56 -364 -72 -80 -99 -51 -103
111 -6 265 -93 283 -478 103 -111 -51 -218 11 -236 136 -8 58 -3 66 53 78 33
7 70 19 81 27 168 120 602 162 684 65z m3004 -94 c52 -129 67 -188 64 -257 -2
-43 5 -88 15 -100 40 -52 42 -147 3 -189 -38 -40 -38 -41 3 -93 41 -52 41 -56
9 -261 -17 -114 -32 -235 -32 -269 0 -34 -8 -77 -19 -96 -10 -19 -24 -60 -31
-91 -6 -33 -22 -53 -36 -48 -28 10 -21 111 10 149 11 13 15 38 9 54 -6 17 5
95 25 175 22 87 31 162 22 186 -9 23 -11 108 -7 190 14 217 11 259 -22 370
-49 167 -92 412 -77 436 8 13 21 -7 31 -47 9 -38 24 -87 33 -109z m-3918 -60
c0 -31 11 -50 29 -50 18 0 25 -12 18 -29 -10 -29 62 -169 90 -173 127 -16 164
-7 351 84 162 79 259 43 225 -85 -6 -24 -1 -62 11 -84 32 -61 -33 -173 -102
-174 -226 -5 -279 -2 -332 20 -33 14 -93 30 -134 35 -80 12 -196 130 -196 201
0 20 -9 46 -21 58 -27 27 -42 187 -18 187 11 0 19 14 19 30 0 17 14 30 30 30
19 0 30 -19 30 -50z m3555 -201 c187 -78 135 -217 -83 -222 -67 -1 -189 -21
-272 -45 -82 -23 -191 -41 -241 -39 -50 2 -101 -2 -113 -9 -23 -15 -179 -1
-209 18 -43 26 -6 65 133 137 83 43 150 87 150 97 0 10 23 12 52 5 30 -7 93 1
146 18 51 17 147 39 213 49 65 9 126 18 135 20 8 1 48 -12 89 -29z m-4266
-100 c32 -59 35 -85 19 -146 -26 -95 -5 -174 58 -223 117 -93 71 -279 -69
-280 -106 0 -181 93 -235 294 -24 87 -123 186 -186 186 -117 0 -99 169 19 174
46 2 109 17 140 33 109 57 211 42 254 -38z m-590 -284 c-1 -52 -8 -112 -17
-133 -8 -21 -14 19 -13 95 0 73 8 133 16 133 8 0 14 -43 14 -95z m4241 -119
c0 -31 -130 -93 -167 -80 -13 5 -45 -3 -73 -16 -129 -64 -158 -73 -199 -60
-147 46 21 238 228 259 53 5 102 15 108 21 15 15 103 -90 103 -124z m-4026 9
c12 -25 31 -67 44 -95 30 -65 61 -116 117 -194 51 -70 47 -76 -60 -96 -42 -8
-80 -23 -86 -32 -40 -64 -98 97 -99 271 0 178 38 245 84 146z m1614 -506 c84
-84 43 -161 -97 -182 -175 -26 -206 -12 -207 95 -2 112 -6 109 143 114 96 4
137 -3 161 -27z m-1482 -129 c38 -81 31 -161 -12 -159 -83 2 -147 178 -80 217
51 30 52 29 92 -58z m265 -49 c41 -97 40 -98 -70 -219 -54 -60 -108 -128 -120
-151 -28 -52 -55 -52 -70 -1 -6 22 -16 58 -23 81 -8 31 2 44 45 60 58 20 143
141 173 244 20 72 30 69 65 -14z m4589 -57 c0 -100 -156 -402 -192 -372 -32
26 -38 78 -9 78 11 0 37 41 59 90 22 50 50 90 62 90 14 0 15 12 3 35 -18 37
-11 78 22 120 34 43 55 28 55 -41z m-3320 -45 c0 -17 14 -57 30 -90 69 -131
-23 -211 -223 -195 -137 12 -167 45 -167 180 l0 96 129 0 c71 0 134 9 141 20
20 32 90 23 90 -11z m-1680 -134 c0 -3 8 -34 19 -70 10 -36 11 -65 2 -65 -9 0
-21 16 -26 35 -6 19 -17 51 -25 70 -8 21 -5 35 8 35 12 0 22 -2 22 -5z m885
-284 c99 38 -7 -119 -112 -166 -31 -14 -52 -37 -47 -50 5 -14 -4 -49 -18 -78
-34 -68 -31 -190 7 -266 21 -42 24 -61 8 -67 -13 -4 -23 -21 -23 -37 0 -16 9
-24 20 -17 11 7 20 -6 20 -29 0 -43 -29 -55 -50 -21 -7 12 -20 16 -30 10 -26
-16 -80 11 -80 41 0 14 -24 54 -52 88 -29 35 -48 68 -42 74 6 6 20 -7 32 -29
21 -39 139 -94 158 -74 6 5 -26 47 -71 92 -104 105 -109 208 -14 282 102 79
129 104 129 119 0 48 87 156 110 137 14 -11 39 -15 55 -9z m2815 -21 c14 -16
37 -30 52 -30 38 0 36 -53 -2 -67 -16 -7 -30 -29 -30 -50 0 -24 -18 -43 -49
-51 -189 -47 -323 -320 -303 -619 l14 -203 -101 -56 c-133 -74 -130 -135 5
-89 31 11 60 15 65 10 20 -19 -17 -77 -43 -67 -15 6 -33 1 -40 -11 -7 -11 -34
-17 -61 -12 -26 5 -53 2 -59 -8 -6 -9 -31 -17 -56 -17 -25 0 -52 -7 -60 -15
-27 -27 -221 -63 -240 -45 -10 10 7 23 40 30 121 27 259 74 295 100 40 29 29
70 -18 70 -16 0 -30 7 -30 15 -1 8 -5 39 -9 68 -7 51 -4 53 50 34 126 -44 154
5 108 186 -78 305 86 683 347 798 36 16 65 36 65 44 0 25 34 17 60 -15z m1080
-36 c0 -14 -36 -61 -80 -104 -44 -43 -80 -90 -80 -105 0 -14 -16 -32 -35 -39
-19 -6 -51 -26 -70 -42 -73 -63 -14 50 89 172 31 36 56 83 56 105 0 30 14 39
60 39 36 0 60 -10 60 -26z m-403 -147 c36 -7 71 -25 77 -40 10 -26 -118 -167
-151 -167 -29 0 -103 63 -103 88 0 34 -72 98 -100 89 -12 -4 -1 -36 29 -75 77
-105 101 -195 63 -233 -18 -18 -32 -38 -32 -46 0 -24 -204 -108 -219 -90 -33
38 -85 253 -78 325 7 73 5 76 -36 57 -74 -34 -74 -58 5 -418 14 -62 -59 -177
-113 -177 -18 0 -54 -18 -79 -40 -228 -198 -232 409 -4 636 85 85 128 100 316
113 97 7 179 15 183 19 3 4 44 -1 91 -11 46 -9 114 -23 151 -30z m-2330 -129
c19 -94 -4 -161 -53 -154 -60 9 -86 104 -45 167 44 67 83 62 98 -13z m2423
-98 c7 -12 -10 -45 -38 -75 -28 -30 -64 -72 -79 -93 -27 -38 -93 -34 -93 5 0
64 184 206 210 163z m-2134 -167 c139 -77 197 -581 73 -637 -87 -40 -139 2
-166 135 -12 63 -46 145 -73 181 -144 188 -21 425 166 321z m1919 -69 c5 -13
-14 -34 -41 -46 -27 -12 -61 -44 -75 -70 -27 -50 -79 -66 -79 -24 0 71 176
197 195 140z m-250 -136 c20 -20 -24 -118 -63 -138 -20 -11 -66 -37 -102 -57
-114 -65 -112 -7 4 89 58 48 109 95 113 103 8 18 32 20 48 3z m-2358 -129 c72
-57 77 -192 8 -203 -91 -14 -239 45 -225 90 3 13 12 48 18 78 9 39 27 56 67
62 30 4 61 9 67 11 7 2 36 -16 65 -38z m1876 -220 c-56 -46 -103 -50 -103 -10
0 40 104 94 130 68 13 -13 4 -33 -27 -58z m-1843 -83 c63 3 123 -18 115 -40
-11 -34 -97 -35 -160 -3 -60 31 -78 81 -20 57 19 -8 49 -14 65 -14z m770 -89
c55 -8 107 -17 115 -19 8 -1 29 -4 46 -5 86 -7 -9 -42 -107 -40 -63 2 -151 -3
-197 -11 -93 -17 -121 5 -87 68 16 29 36 38 76 31 30 -4 99 -15 154 -24z"/>
<path d="M4485 2517 c-28 -28 -251 -76 -298 -64 -54 13 -53 17 -28 -70 16 -56
14 -65 -11 -55 -16 6 -35 -2 -41 -18 -6 -17 -20 -30 -30 -30 -10 0 -73 -53
-139 -119 -138 -136 -207 -161 -297 -108 -102 60 -105 192 -6 263 28 21 45 48
37 60 -29 47 -152 -124 -152 -211 0 -163 227 -243 356 -126 35 32 64 67 64 77
0 10 38 45 85 76 47 32 88 65 92 73 12 27 63 16 63 -13 0 -32 111 -132 147
-132 15 1 16 5 2 15 -159 111 -83 286 117 268 31 -2 132 86 133 118 1 16 -77
13 -94 -4z"/>
<path d="M3384 2356 c-33 -33 -30 -56 6 -56 17 0 30 4 30 8 0 5 5 23 12 40 14
38 -14 42 -48 8z"/>
<path d="M4041 1864 c-1 -33 58 -124 81 -124 32 0 19 36 -31 94 -28 31 -50 44
-50 30z"/>
<path d="M1753 4527 c-46 -47 35 -390 102 -433 14 -9 25 -39 25 -67 0 -65 43
-52 69 20 15 42 10 65 -25 112 -48 65 -85 202 -70 259 19 73 -56 153 -101 109z"/>
<path d="M2384 5502 c-14 -8 -53 -14 -86 -12 -45 3 -58 -4 -53 -28 4 -18 20
-29 36 -25 16 4 46 10 68 14 42 9 84 43 69 58 -5 5 -21 2 -34 -7z"/>
<path d="M3242 5506 c-5 -65 -193 -226 -286 -243 -108 -20 -191 34 -163 107 9
25 7 32 -10 22 -12 -8 -23 -23 -23 -33 0 -10 -16 -38 -35 -62 -113 -139 -157
-182 -213 -207 -34 -15 -89 -43 -122 -62 -106 -60 -119 -63 -214 -39 -171 44
-233 110 -224 240 l8 111 -50 -44 c-50 -43 -66 -104 -33 -124 10 -6 23 -36 29
-67 35 -167 319 -303 423 -203 10 10 33 18 50 18 44 0 220 127 293 213 55 64
74 73 170 77 186 10 245 28 304 90 31 33 65 60 75 60 10 0 19 27 19 59 0 45 7
57 30 48 17 -6 30 -1 30 12 0 13 -8 18 -18 12 -10 -6 -23 0 -29 14 -7 18 -10
18 -11 1z"/>
<path d="M1769 5252 c-46 -34 -22 -70 26 -40 37 24 57 68 30 68 -9 0 -35 -13
-56 -28z"/>
<path d="M1641 5158 c-30 -25 -53 -33 -57 -20 -4 12 -17 22 -29 22 -12 0 -16
-6 -9 -13 7 -7 -16 -38 -52 -69 -57 -51 -60 -57 -22 -58 24 0 66 23 94 52 37
36 64 48 93 38 45 -14 55 -61 16 -77 -18 -8 -15 -18 10 -39 62 -51 -29 -178
-146 -204 -86 -19 -92 -50 -10 -50 185 0 281 141 214 314 -21 53 -33 107 -29
121 13 37 -17 29 -73 -17z"/>
<path d="M2300 4602 c0 -10 17 -59 39 -109 21 -49 42 -142 47 -205 10 -139 41
-160 69 -48 22 86 1 193 -64 318 -29 57 -91 87 -91 44z"/>
<path d="M2432 2568 c-22 -58 -12 -69 63 -66 41 1 96 -4 122 -13 39 -12 46 -8
40 23 -6 28 -26 39 -76 40 -38 1 -72 12 -77 25 -11 34 -58 28 -72 -9z"/>
<path d="M2052 1228 c-17 -45 -16 -48 27 -48 50 0 74 39 39 62 -40 25 -52 22
-66 -14z"/>
<path d="M1746 608 c-12 -32 23 -67 69 -68 32 0 31 21 -3 65 -33 43 -50 44
-66 3z"/>
</g>
</svg>
